<svg xmlns="http://www.w3.org/2000/svg" viewBox="0 0 256 256" role="img" aria-label="Boost icon dark theme">
  <title>Boost Dark</title>
  <defs>
    <linearGradient id="g" x1="0" x2="1" y1="0" y2="1">
      <stop offset="0%" stop-color="#F8FAFC"/>
      <stop offset="100%" stop-color="#CBD5E1"/>
    </linearGradient>
  </defs>
  <g fill="url(#g)">
    <path d="M132 18c-7 0-13 4-16 10L61 126c-3 6-3 13 1 18s10 8 17 8h27l-20 74c-2 8 3 16 11 18 6 1 12-2 16-7l82-107c4-5 4-12 1-18-3-5-9-9-16-9h-36l26-70c2-7 1-14-4-19-3-4-8-6-14-6h-20z"/>
    <path d="M187 48c10 6 19 15 25 25 4 7 2 16-5 20-7 4-16 2-20-5-3-5-8-10-13-13-7-4-9-13-5-20 4-7 13-9 20-5z" opacity=".22"/>
    <path d="M44 160c7 4 9 13 5 20-3 5-5 11-6 17-1 8-8 13-16 12-8-1-13-8-12-16 2-10 5-20 11-29 4-7 13-9 20-4z" opacity=".18"/>
  </g>
</svg>
