<svg xmlns="http://www.w3.org/2000/svg" viewBox="0 0 256 256" role="img" aria-label="Reward chest dark theme">
  <title>Reward Chest Dark</title>
  <g fill="#F8FAFC">
    <!-- lid -->
    <path d="M48 86c0-26 21-46 46-46h68c25 0 46 20 46 46v16H48V86z"/>
    <!-- body -->
    <path d="M40 108h176v76c0 24-20 44-44 44H84c-24 0-44-20-44-44v-76z"/>
    <!-- side shading -->
    <path d="M40 108h22v120H40z" opacity=".08"/>
    <path d="M194 108h22v120h-22z" opacity=".12"/>
    <!-- band -->
    <rect x="116" y="72" width="24" height="156" rx="12"/>
    <rect x="58" y="132" width="140" height="18" rx="9" opacity=".92"/>
    <!-- lock -->
    <path d="M128 114c13 0 24 11 24 24v10c0 13-11 24-24 24s-24-11-24-24v-10c0-13 11-24 24-24zm0 18c-3 0-6 3-6 6v10c0 3 3 6 6 6s6-3 6-6v-10c0-3-3-6-6-6z" fill="#0F172A"/>
    <circle cx="196" cy="74" r="7" opacity=".7"/>
    <circle cx="64" cy="204" r="5" opacity=".55"/>
  </g>
</svg>
