<svg width="256" height="256" viewBox="0 0 256 256" fill="none" xmlns="http://www.w3.org/2000/svg">
<rect width="256" height="256" fill="none"/>

<path d="M74 191
C63 191 54 183 54 171
C54 157 61 146 67 136
C75 121 80 104 82 86
C85 58 102 42 128 42
C154 42 171 58 174 86
C176 104 181 121 189 136
C195 146 202 157 202 171
C202 183 193 191 182 191
C172 191 165 183 160 176
C154 184 147 192 136 192
C125 192 118 185 112 177
C106 185 98 192 86 192
C81 192 77 191 74 191Z"
fill="#EDEFF4"/>
<path d="M108 94 C116 83 130 83 136 92 C129 101 117 104 108 94Z" fill="#EDEFF4"/>
<path d="M148 92 C154 83 168 83 176 94 C167 104 155 101 148 92Z" fill="#EDEFF4"/>

<path d="M86 96H170C178 96 184 102 184 110V111C184 118 178 124 171 124H164
C157 124 151 119 150 112L149 108H107L106 112C105 119 99 124 92 124H85
C78 124 72 118 72 111V110C72 102 78 96 86 96Z" fill="#EDEFF4"/>
<rect x="79" y="103" width="30" height="15" rx="7.5" fill="#05070B"/>
<rect x="147" y="103" width="30" height="15" rx="7.5" fill="#05070B"/>
<rect x="109" y="107" width="38" height="7" rx="3.5" fill="#05070B"/>

</svg>