
<svg width="256" height="256" viewBox="0 0 256 256" fill="none" xmlns="http://www.w3.org/2000/svg">
  <path d="M88 64H168V136C168 166 145 188 128 194C111 188 88 166 88 136V64Z" fill="#EDEFF4"/>
  <path d="M88 72C75 79 63 92 55 111C52 118 57 124 64 124H86L88 72Z" fill="#EDEFF4" opacity="0.92"/>
  <path d="M168 72C181 79 193 92 201 111C204 118 199 124 192 124H170L168 72Z" fill="#EDEFF4" opacity="0.92"/>
  <rect x="100" y="194" width="56" height="15" rx="7.5" fill="#EDEFF4"/>
  <path d="M128 102L134.8 116.2L150.5 118.5L139.2 129.4L141.9 145L128 137.6L114.1 145L116.8 129.4L105.5 118.5L121.2 116.2L128 102Z" fill="#05070B"/>
</svg>
